<?xml version="1.0" standalone="no"?>
<!DOCTYPE svg PUBLIC "-//W3C//DTD SVG 1.1//EN" "http://www.w3.org/Graphics/SVG/1.1/DTD/svg11.dtd" >
<svg xmlns="http://www.w3.org/2000/svg" xmlns:xlink="http://www.w3.org/1999/xlink" version="1.1">
<metadata></metadata>
<defs>
<font id="utm_americana_ebbold" horiz-adv-x="1366" >
<font-face units-per-em="2048" ascent="1638" descent="-410" />
<missing-glyph horiz-adv-x="663" />
<glyph horiz-adv-x="0" />
<glyph unicode="&#xd;" horiz-adv-x="571" />
<glyph unicode=" "  horiz-adv-x="663" />
<glyph unicode="&#x09;" horiz-adv-x="663" />
<glyph unicode="&#xa0;" horiz-adv-x="663" />
<glyph unicode="!" horiz-adv-x="645" d="M137 1100q0 96 40 166q50 86 144 86q95 0 145 -86q40 -70 40 -166q0 -60 -32 -188l-52 -193q-35 -157 -58 -344h-86q-22 187 -57 344l-52 193q-32 128 -32 188zM155 141q0 70 48 121q49 51 118 51q70 0 119 -51q47 -51 47 -121t-47 -120q-49 -52 -119 -52q-69 0 -118 52 q-48 50 -48 120z" />
<glyph unicode="&#x22;" horiz-adv-x="681" d="M51 1208v25q1 32 8 55q21 64 94 64q72 0 92 -64q8 -23 8 -55v-25q0 -9 -1 -22l-39 -418q-1 -7 -5 -17q-4 -11 -10 -21q-18 -25 -45 -25q-28 0 -46 25q-6 10 -11 21q-3 10 -4 17l-39 418q-1 13 -2 22zM428 1208v25q0 32 8 55q20 64 92 64q73 0 94 -64q8 -23 8 -55v-25 q-1 -9 -2 -22l-39 -418q0 -7 -4 -17q-4 -11 -11 -21q-18 -25 -46 -25q-27 0 -44 25q-7 10 -11 21q-3 10 -4 17l-39 418q-1 13 -2 22z" />
<glyph unicode="#" d="M239 383l6 139h174l31 238h-158l4 139h176l50 361h170l-50 -361h172l52 361h170l-49 -361h141l-4 -139h-160l-31 -238h144l-7 -139h-159l-51 -383h-168l49 383h-174l-49 -383h-170l49 383h-158zM591 522h172l31 238h-172z" />
<glyph unicode="$" d="M172 150l111 346l24 -11q15 -154 115 -263q106 -116 254 -116q227 0 227 213q0 109 -102 163q-40 22 -105 40l-90 23q-19 5 -31 8q-74 19 -120 36q-63 24 -105 56q-102 78 -102 227q0 158 137 258q124 91 285 91v184h102v-184q190 0 383 -68l-94 -291l-29 6 q-18 130 -88 205q-77 82 -203 82q-202 0 -202 -192q0 -97 102 -143q39 -18 105 -34l120 -27q73 -17 121 -35q63 -24 105 -56q102 -79 102 -232q0 -168 -131 -283q-126 -112 -297 -112v-195h-96v195q-245 0 -498 109z" />
<glyph unicode="%" horiz-adv-x="1402" d="M24 928q0 144 73 246q82 116 226 116t226 -116q73 -102 73 -246q0 -145 -73 -247q-82 -116 -226 -116t-226 116q-73 102 -73 247zM221 928q0 -168 28 -243q25 -67 74 -67t74 67q28 75 28 243q0 167 -28 243q-25 66 -74 66t-74 -66q-28 -76 -28 -243zM233 -31l795 1321 h122l-794 -1321h-123zM780 332q0 144 72 246q83 116 227 116q143 0 226 -116q73 -102 73 -246q0 -145 -73 -247q-83 -116 -226 -116q-144 0 -227 116q-72 102 -72 247zM976 332q0 -168 28 -243q25 -66 75 -66q49 0 74 66q28 75 28 243q0 167 -28 243q-25 66 -74 66 q-50 0 -75 -66q-28 -76 -28 -243z" />
<glyph unicode="&#x26;" horiz-adv-x="1593" d="M133 299q0 114 111 205q41 34 103 69l105 56q-58 62 -97 134q-46 86 -46 157q0 156 107 260t264 104q138 0 240 -66q118 -76 118 -208q0 -116 -109 -200q-43 -33 -104 -62q-45 -21 -108 -43q24 -29 77 -81q45 -45 108 -104q116 -108 196 -176q9 12 13 37l3 41 q0 164 -180 213v33q37 0 112 -4q74 -5 107 -5t111 5q79 4 116 4q-18 -226 -170 -410q58 -54 147 -115l160 -108q8 -5 32 -8l30 -2v-33q-37 0 -113 4t-108 4q-33 0 -106 -4q-72 -4 -109 -4q-33 0 -66 28l-55 50q-72 -56 -186 -86q-98 -25 -203 -25q-86 0 -167 17 q-92 19 -162 57q-171 92 -171 266zM463 393q0 -336 329 -336q113 0 166 68l-65 59q-1 2 -3 4l-162 150l-113 109q-58 59 -107 114q-45 -67 -45 -168zM514 1047q0 -79 46 -159q33 -56 103 -132q125 105 125 266q0 82 -35 136q-39 61 -110 61q-129 0 -129 -172z" />
<glyph unicode="'" horiz-adv-x="569" d="M127 1180q0 70 48 120q49 52 118 52q70 0 119 -52q47 -50 47 -120q0 -122 -76 -256q-67 -118 -159 -191l-39 43q108 105 108 217q-175 0 -166 187z" />
<glyph unicode="(" horiz-adv-x="757" d="M163 446q0 118 34 244q31 116 90 237q53 110 128 224q67 100 149 201h95q-63 -93 -110 -208q-41 -102 -68 -220q-24 -105 -36 -217q-10 -99 -10 -197q0 -120 10 -230q12 -124 35 -234q55 -255 175 -435h-91l-71 90q-39 50 -71 95q-77 107 -129 202q-62 113 -94 218 q-36 118 -36 230z" />
<glyph unicode=")" horiz-adv-x="757" d="M98 -389q63 93 109 207q42 103 69 221q24 104 35 217q10 98 10 197q0 119 -10 230q-11 123 -35 234q-54 254 -174 435h90q41 -51 72 -90q38 -50 70 -95q77 -107 130 -202q61 -113 93 -218q37 -119 37 -231q0 -117 -34 -244q-31 -115 -90 -237q-54 -110 -129 -223 q-67 -101 -149 -201h-94z" />
<glyph unicode="*" horiz-adv-x="1024" d="M73 868l90 324l144 -132q54 -47 87 -73q41 -33 52 -33q22 0 22 23q0 46 -53 168q-47 109 -84 166h360q-36 -57 -83 -166q-54 -122 -54 -168q0 -23 23 -23q10 0 51 33q34 26 87 73l144 132l91 -324l-107 15q-62 8 -108 8q-86 0 -123 -12q-25 -8 -25 -21q0 -15 41 -42 q34 -23 94 -53q47 -23 102 -47q45 -19 64 -26l-256 -215q-38 192 -66 267q-26 67 -55 67t-54 -67q-28 -75 -67 -267l-256 215q20 7 65 26q54 24 101 47q60 30 94 53q41 27 41 42q0 13 -25 21q-37 12 -122 12q-47 0 -108 -8z" />
<glyph unicode="+" horiz-adv-x="1228" d="M81 414v237h414v414h237v-414h414v-237h-414v-414h-237v414h-414z" />
<glyph unicode="," horiz-adv-x="681" d="M183 141q0 70 48 121q49 51 118 51q70 0 119 -51q47 -51 47 -121q0 -122 -76 -255q-67 -118 -159 -191l-39 43q108 105 108 217q-175 0 -166 186z" />
<glyph unicode="-" horiz-adv-x="681" d="M63 416l59 233h496l-59 -233h-496z" />
<glyph unicode="." horiz-adv-x="681" d="M174 141q0 70 48 121t118 51t118 -51t48 -121t-48 -120q-48 -52 -118 -52t-118 52q-48 50 -48 120z" />
<glyph unicode="/" horiz-adv-x="569" d="M-106 -41l539 1393h241l-540 -1393h-240z" />
<glyph unicode="0" d="M45 631q0 283 180 471q182 188 459 188t458 -188t181 -471q0 -284 -181 -471q-181 -189 -458 -189t-459 189q-180 187 -180 471zM410 631q0 -594 274 -594t274 594t-274 594t-274 -594z" />
<glyph unicode="1" d="M319 -8v37q118 5 165 71q40 54 40 170v711q0 169 -176 184v37l124 19q70 11 125 20q139 23 246 49v-1020q0 -116 40 -170q47 -66 165 -71v-37l-364 8z" />
<glyph unicode="2" d="M100 0q0 107 51 203q44 83 129 161q68 62 173 130l179 110q175 108 175 344q0 122 -60 196q-66 81 -186 81q-111 0 -206 -120q-84 -107 -124 -263l-27 -15l-90 365q221 98 486 98q92 0 186 -20q104 -23 185 -67q93 -49 143 -120q57 -80 57 -182q0 -167 -155 -279 q-62 -45 -149 -80q-73 -29 -159 -48l-114 -29q-68 -19 -114 -43q-123 -63 -136 -176h479q130 0 214 40q96 46 153 154h34l-141 -440h-983z" />
<glyph unicode="3" d="M55 78l113 377l37 -19q0 -163 108 -280q112 -121 277 -121q129 0 202 93q68 86 68 218t-84 217q-78 81 -191 82q-58 0 -131 -27v115q62 -22 131 -22q105 0 168 85q58 77 58 185q0 106 -65 174q-66 70 -171 70q-123 0 -219 -114q-86 -102 -106 -232l-37 -15l-78 338 q76 23 120 35l117 28q125 25 244 25q90 0 173 -11q104 -14 183 -45q93 -37 144 -95q59 -67 59 -162q0 -148 -146 -224q-57 -30 -137 -48q-62 -15 -141 -23v-4q77 -7 152 -26q89 -23 157 -59q79 -42 123 -98q50 -64 50 -145q0 -110 -60 -190q-52 -70 -148 -116 q-83 -40 -195 -59q-94 -16 -197 -16q-155 0 -295 25q-153 28 -283 84z" />
<glyph unicode="4" d="M0 303l29 98l776 859h135v-814q220 -5 340 203l35 -4l-119 -360l-130 15q-70 6 -126 3q0 -264 178 -274v-37l-338 8l-340 -8v37q181 10 181 274h-621zM178 430h443v498z" />
<glyph unicode="5" d="M92 80l104 375l37 -9q11 -165 122 -285q115 -126 278 -126q124 0 204 103q74 95 74 222q0 139 -101 224q-96 82 -237 82q-69 0 -127 -10q-48 -7 -91 -22q-29 -10 -62 -25l-43 -21h-52l46 672h753q84 0 123 13q30 10 47 36l37 -11l-86 -284h-713q-102 0 -110 -131 l-15 -203q88 30 194 44q90 11 200 11q95 0 190 -16q111 -20 196 -58q99 -45 154 -113q62 -78 62 -181q0 -111 -64 -195q-56 -73 -159 -122q-88 -42 -204 -63q-99 -18 -200 -18q-285 0 -557 111z" />
<glyph unicode="6" d="M73 627q0 290 180 473q189 190 508 190q102 0 240 -29l120 -29l113 -32l-106 -344l-29 14q-18 136 -106 240q-98 115 -228 115q-99 0 -173 -57q-65 -51 -108 -143q-38 -80 -54 -183q-15 -91 -11 -180h4q121 176 346 176q196 0 351 -107q174 -120 174 -307 q0 -219 -193 -346q-167 -109 -397 -109q-262 0 -442 178q-189 187 -189 480zM454 403q0 -153 47 -247q60 -121 190 -121q131 0 191 121q47 94 47 247q0 154 -47 248q-60 121 -191 121q-130 0 -190 -121q-47 -94 -47 -248z" />
<glyph unicode="7" d="M88 864l127 396h1098q0 -60 -43 -138q-35 -64 -102 -144q-27 -32 -61 -70q-25 -27 -62 -67l-8 -8l-97 -106q-162 -190 -162 -543l6 -184h-434q0 219 132 426q113 176 311 328q6 5 17 14l54 42q41 33 70 60q75 71 110 144h-516q-177 0 -257 -29q-81 -29 -163 -121h-20z " />
<glyph unicode="8" d="M71 334q0 131 154 211q58 30 138 52q55 16 130 30v4q-61 21 -109 45q-60 29 -103 64q-106 86 -106 204q0 200 174 285q70 34 168 49q79 12 177 12q72 0 150 -12q95 -15 170 -44q89 -36 138 -88q58 -61 58 -142q0 -118 -110 -188q-43 -26 -105 -48q-41 -15 -111 -33v-2 q80 -28 136 -53q78 -36 133 -76q141 -102 141 -244q0 -107 -61 -189q-53 -71 -150 -120q-85 -42 -195 -63q-96 -19 -194 -19q-99 0 -194 15q-116 18 -204 55q-103 44 -160 112q-65 77 -65 183zM407 303q0 -119 79 -194q79 -74 199 -74q107 0 180 50q93 63 93 185 q0 98 -122 193q-113 87 -251 117q-93 -37 -138 -114q-40 -68 -40 -163zM479 1051q0 -95 115 -173q40 -27 102 -58l96 -46q52 56 80 106q35 64 35 128q0 217 -218 217q-77 0 -141 -48q-69 -52 -69 -126z" />
<glyph unicode="9" d="M71 799q0 126 56 225q50 90 141 153q166 113 393 113q258 0 442 -172q189 -176 189 -434q0 -326 -181 -518q-185 -197 -508 -197q-102 0 -239 29l-121 29l-113 32l107 344l41 -14q18 -136 107 -239q98 -115 231 -115q99 0 173 57q65 50 108 142q38 80 54 184 q15 91 11 180h-4q-77 -120 -162 -165q-75 -40 -201 -40q-197 0 -350 103q-174 117 -174 303zM436 842q0 -164 46 -260q60 -123 191 -123t191 123q47 96 47 260q0 163 -47 260q-60 123 -191 123t-191 -123q-46 -97 -46 -260z" />
<glyph unicode=":" horiz-adv-x="681" d="M174 141q0 70 48 121t118 51t118 -51t48 -121t-48 -120q-48 -52 -118 -52t-118 52q-48 50 -48 120zM174 791q0 70 48 120q48 52 118 52t118 -52q48 -50 48 -120q0 -71 -48 -121q-48 -52 -118 -52t-118 52q-48 50 -48 121z" />
<glyph unicode=";" horiz-adv-x="681" d="M183 141q0 70 48 121q49 51 118 51q70 0 119 -51q47 -51 47 -121q0 -122 -76 -255q-67 -118 -159 -191l-39 43q108 105 108 217q-175 0 -166 186zM183 791q0 70 48 120q49 52 118 52q70 0 119 -52q47 -50 47 -120q0 -71 -47 -121q-49 -52 -119 -52q-69 0 -118 52 q-48 50 -48 121z" />
<glyph unicode="&#x3c;" horiz-adv-x="1228" d="M94 440v185l1040 442v-221l-743 -314l743 -313v-221z" />
<glyph unicode="=" horiz-adv-x="1228" d="M81 176v238h1065v-238h-1065zM81 651v238h1065v-238h-1065z" />
<glyph unicode="&#x3e;" horiz-adv-x="1228" d="M94 -2v221l743 313l-743 314v221l1040 -442v-185z" />
<glyph unicode="?" horiz-adv-x="1175" d="M75 1274q112 41 240 60q116 18 247 18q201 0 355 -90q184 -107 184 -293q0 -135 -99 -228q-37 -35 -101 -75l-143 -88q-10 -6 -17 -10l-17 -10q-44 -27 -72 -50q-83 -67 -77 -131h-74q3 60 39 121q28 46 80 100q82 86 131 182q55 109 55 213q0 289 -264 289 q-140 0 -237 -115q-87 -102 -105 -249l-31 -9zM374 141q0 70 48 121t118 51t118 -51t48 -121t-48 -120q-48 -52 -118 -52t-118 52q-48 50 -48 120z" />
<glyph unicode="@" horiz-adv-x="1638" d="M124 631q0 315 217 522q210 199 514 199q279 0 468 -169q190 -169 190 -421q0 -172 -97 -316q-108 -161 -274 -161q-88 0 -143 61q-20 22 -31 48q-9 23 -8 36h-5q-13 -35 -73 -82q-76 -57 -156 -61q-70 -2 -124 49q-68 66 -68 194q0 161 97 313q53 83 123 130 q80 53 175 53q61 0 93 -31q11 -12 23 -31l19 -34l21 65h149l-117 -477q-9 -47 3 -89q14 -50 53 -50q67 0 131 129q63 126 63 252q0 175 -137 308q-148 144 -375 144q-193 0 -332 -131q-78 -74 -120 -180q-48 -119 -48 -270q0 -224 161 -376q153 -144 358 -144q125 0 222 25 q80 22 175 71l18 -113q-109 -63 -193 -93q-114 -42 -220 -42q-186 0 -338 67q-135 60 -234 168q-88 96 -136 218q-44 112 -44 219zM718 571q0 -165 86 -165q75 0 132 88q64 99 83 284q0 129 -76 129q-73 0 -145 -95q-80 -106 -80 -241z" />
<glyph unicode="A" horiz-adv-x="1669" d="M12 -8v37q51 10 130 91q91 94 165 232l501 950l13 23q16 27 25 27h4q9 0 30 -30q17 -24 29 -48l533 -1000q68 -126 120 -180q45 -45 97 -55v-47l-349 8l-333 -8v41l45 11q22 6 34 15q31 22 31 74q0 67 -69 199l-101 192h-434l-78 -159q-49 -118 -49 -168q0 -133 156 -164 v-41q-28 0 -65 1l-189 7q-37 0 -120 -4t-126 -4zM516 594h368l-186 371z" />
<glyph unicode="B" horiz-adv-x="1554" d="M22 -8v41q97 5 130 112q13 44 18 112q4 48 4 132v668q0 204 -99 229v33q32 0 72 -1l143 -6q40 -1 70 -1h440q44 0 80 -2q49 -1 92 -5q110 -10 190 -35q100 -31 154 -85q64 -64 64 -158q0 -164 -146 -240q-58 -31 -142 -49q-60 -14 -150 -24v-4q93 -4 177 -20 q102 -20 178 -57q89 -43 137 -108q54 -73 54 -172q0 -116 -75 -195q-65 -67 -183 -105q-96 -31 -226 -44q-52 -4 -109 -6q-43 -2 -95 -2l-535 -3l-96 -3zM534 389q2 -216 45 -271q41 -52 203 -52q330 0 330 311q0 177 -165 247q-66 28 -159 39q-70 9 -166 9h-88v-283z M534 737h68q85 0 146 9q76 11 129 36q126 61 126 213v8q0 137 -96 191q-87 48 -305 51h-68v-508z" />
<glyph unicode="C" horiz-adv-x="1593" d="M81 655q0 166 65 302q61 126 174 218q218 177 535 177q383 0 643 -135l-125 -410l-32 12q-28 205 -123 325q-113 142 -306 142q-117 0 -206 -63q-79 -56 -132 -158q-47 -89 -71 -205q-21 -101 -21 -205q0 -103 21 -204q24 -117 71 -205q53 -103 132 -158q89 -63 206 -63 q407 0 474 442l28 10l99 -354q-165 -85 -306 -122q-159 -42 -352 -42q-317 0 -535 177q-113 91 -174 218q-65 136 -65 301z" />
<glyph unicode="D" horiz-adv-x="1630" d="M28 -8v41q101 5 135 112q14 44 19 112q4 48 4 132v668q0 202 -105 229v33q32 0 72 -1l143 -6q40 -1 70 -1h465q115 0 233 -36q132 -39 235 -114q116 -84 180 -203q73 -134 73 -303t-73 -302q-64 -119 -180 -203q-103 -75 -235 -114q-118 -36 -233 -36l-552 -3l-150 -4 q-56 -1 -101 -1zM546 389q0 -215 41 -272q37 -51 172 -51q111 0 193 58q73 52 120 147q41 82 61 191q17 93 17 193q0 148 -20 249q-22 113 -72 185q-108 156 -377 156h-135v-856z" />
<glyph unicode="E" horiz-adv-x="1517" d="M28 -8v41q108 5 144 112q15 44 20 112q4 48 4 132v668q0 203 -121 229v33q37 0 81 -1l220 -7l887 8l96 -361h-45q-238 287 -563 287h-195v-518h121q72 0 131 9q69 10 122 33q127 54 169 181h39v-510h-33q-28 108 -149 165q-112 52 -279 52h-121v-299q0 -158 49 -218 q53 -64 201 -64q179 0 367 125q80 54 155 126q68 65 127 140l33 -14l-149 -461l-963 8z" />
<glyph unicode="F" d="M20 -8v41q101 5 135 112q14 44 19 112q4 48 4 132v668q0 202 -105 229v33l289 -8l887 8l96 -361h-45q-238 287 -563 287h-199v-518h125q72 0 131 9q69 10 122 33q127 54 169 181h39v-510h-33q-28 108 -149 165q-112 52 -279 52h-125v-268q0 -84 4 -132q5 -68 19 -112 q34 -107 135 -112v-41l-338 8z" />
<glyph unicode="G" horiz-adv-x="1669" d="M63 655q0 166 65 302q61 126 174 218q218 177 535 177q383 0 643 -135l-125 -398h-32q-28 205 -123 325q-113 142 -306 142q-117 0 -206 -63q-79 -56 -132 -158q-47 -89 -71 -205q-21 -101 -21 -205q0 -107 16 -204q19 -117 59 -205q47 -102 122 -158q85 -63 203 -63 q246 0 246 251v121q0 133 -43 178q-39 41 -170 60v33l348 -9l362 9v-33q-137 -10 -137 -291q0 -74 3 -111q5 -61 22 -110q-165 -85 -306 -122q-159 -42 -352 -42q-317 0 -535 177q-113 91 -174 218q-65 136 -65 301z" />
<glyph unicode="H" horiz-adv-x="1669" d="M28 0v41q104 5 138 112q15 44 20 112q4 48 4 132v621q0 156 -18 201q-18 47 -91 67v33l289 -8l221 7q44 1 82 1v-33q-73 -15 -98 -62q-25 -46 -25 -167v-324h570v324v17q0 185 -107 212v33l287 -8l297 8v-33q-117 -26 -117 -229v-660q0 -70 3 -116q5 -67 18 -114 q34 -121 124 -126v-41h-651v41q93 5 124 112q13 44 18 112q4 49 4 132v260h-570v-260q0 -83 4 -132q5 -68 18 -112q32 -107 128 -112v-41h-672z" />
<glyph unicode="I" horiz-adv-x="796" d="M61 0v41q101 5 135 112q14 44 19 112q4 48 4 132v711q0 96 -28 134q-19 26 -77 44v33q32 0 72 -1l143 -6q39 -1 70 -1t70 1l143 6q40 1 72 1v-33q-105 -27 -105 -182v-707q0 -83 4 -132q4 -68 17 -112q31 -107 120 -112v-41h-659z" />
<glyph unicode="J" horiz-adv-x="1024" d="M2 6l127 428l33 -14q2 -59 11 -117q11 -72 30 -127q48 -143 135 -143q12 0 23 3q12 3 24 11q27 19 47 64q24 53 37 143q14 103 14 254v549q0 204 -133 229v33q41 0 88 -1l226 -7l222 7q46 1 85 1v-33q-127 -25 -127 -229v-525q0 -573 -514 -573q-87 0 -173 14 q-67 10 -155 33z" />
<glyph unicode="K" horiz-adv-x="1517" d="M65 0v41q91 5 122 112q13 44 18 112q3 49 3 132v660q0 135 -22 181q-20 40 -82 48v33q31 0 71 -1l143 -6q40 -1 71 -1l290 8v-33q-66 -16 -87 -56q-23 -45 -23 -173v-332l327 299q97 87 97 162q0 74 -99 96v37q32 0 72 -1l143 -6q39 -1 70 -1t70 1l144 6q39 1 71 1v-41 q-105 -40 -213 -105q-92 -55 -197 -135l-366 -301v-4q198 0 310 -58q134 -70 238 -261l71 -129q39 -68 70 -113q77 -111 158 -154v-18h-485q-18 0 -24 16l-216 495q-20 42 -39 70q-53 78 -120 78q-82 0 -82 -112v-150q0 -104 3 -156q5 -69 17 -109q27 -85 119 -91v-41h-643z " />
<glyph unicode="L" horiz-adv-x="1478" d="M28 -8v41q108 5 144 112q15 44 20 112q4 48 4 132v668q0 203 -121 229v33l303 -8l223 7q43 1 80 1v-33q-125 -26 -125 -229v-699q0 -282 207 -282q179 0 367 125q80 54 155 126q68 65 127 140l33 -14l-149 -461l-920 8z" />
<glyph unicode="M" horiz-adv-x="1857" d="M14 0v33q113 30 173 169q48 111 48 244v549q0 162 -37 226q-28 47 -106 71v27q42 0 123 -4t116 -4l187 7q36 1 63 1l385 -817l351 817q42 0 122 -4q81 -4 117 -4t121 4t127 4v-27q-82 -21 -107 -79q-16 -38 -16 -140v-676q0 -84 4 -132q5 -68 19 -112q34 -107 135 -112 v-41h-676v41q101 5 135 112q14 44 19 112q4 48 4 132v738h-7l-505 -1176h-27l-469 1145h-2v-658q0 -63 7 -119q10 -70 30 -125q51 -138 166 -167v-35h-500z" />
<glyph unicode="N" horiz-adv-x="1630" d="M-2 -8v33q113 30 173 169q48 111 48 244v520q0 73 -4 114q-5 58 -20 97q-37 94 -148 117v33q41 0 121 -4q81 -4 117 -4t120 4q85 4 125 4l809 -789v342q0 64 -7 120q-9 70 -29 125q-51 138 -166 167v35q28 0 64 -1l190 -7q37 0 119 4q83 4 126 4v-33q-112 -30 -172 -169 q-49 -112 -49 -245v-847q0 -35 -14 -52q-11 -14 -25 -14h-4q-12 0 -34 20q-8 7 -18 18l-1025 1074v-633q0 -63 7 -119q10 -70 30 -125q51 -139 166 -167v-35q-28 0 -65 1l-189 7q-37 0 -120 -4t-126 -4z" />
<glyph unicode="O" horiz-adv-x="1705" d="M77 655q0 166 65 302q61 126 174 218q218 177 535 177q318 0 535 -177q113 -92 174 -218q65 -136 65 -302q0 -165 -65 -301q-61 -127 -174 -218q-217 -177 -535 -177q-317 0 -535 177q-113 91 -174 218q-65 136 -65 301zM478 655q0 -630 373 -630t373 630q0 631 -373 631 t-373 -631z" />
<glyph unicode="P" horiz-adv-x="1441" d="M34 -8v41q101 5 135 112q14 44 19 112q4 48 4 132v668q0 202 -105 229v33q32 0 72 -1l143 -6q40 -1 70 -1h389q629 0 645 -328q0 -115 -77 -198q-65 -72 -186 -117q-100 -38 -231 -56q-104 -14 -210 -14q-68 0 -150 10v-219q0 -84 4 -132q5 -68 19 -112q34 -107 135 -112 v-41l-338 8zM552 682h80q381 0 381 307q0 256 -381 256h-80v-563z" />
<glyph unicode="Q" horiz-adv-x="1705" d="M77 655q0 166 65 302q61 126 174 218q218 177 535 177q318 0 535 -177q113 -92 174 -218q65 -136 65 -302q0 -294 -201 -479q-188 -173 -509 -213v-6q106 -19 229 -62q48 -16 104 -38l251 -98q45 -13 74 -13q16 0 28 4l10 -33q-19 -6 -50 -18l-56 -21q-75 -29 -124 -45 q-72 -25 -126 -37q-65 -16 -109 -16q-42 0 -120 40l-305 173q-80 39 -126 39q-79 0 -145 -70l-19 86q113 54 285 113v6q-288 55 -457 225q-182 184 -182 463zM478 655q0 -630 373 -630t373 630q0 631 -373 631t-373 -631z" />
<glyph unicode="R" horiz-adv-x="1593" d="M55 -8v41q101 5 135 112q14 44 19 112q4 48 4 132v668q0 203 -121 229v33l305 -6l547 -2q495 0 495 -307q0 -91 -50 -157q-45 -59 -127 -96q-71 -32 -165 -48q-78 -13 -163 -13v-4q187 -29 270 -87q93 -66 160 -232q79 -199 129 -263q46 -57 135 -79v-33q-28 0 -65 1 l-193 7q-26 0 -60 -1l-127 -6q-35 -1 -63 -1l-109 325q-28 73 -49 117q-32 67 -66 113q-90 119 -214 119h-109v-277q0 -84 4 -132q5 -68 19 -112q34 -107 135 -112v-41l-338 8zM573 731h109q152 0 246 53q118 66 118 203q0 145 -118 209q-48 27 -117 39q-58 10 -129 10h-109 v-514z" />
<glyph unicode="S" horiz-adv-x="1402" d="M55 88l113 381l30 -12q26 -174 157 -301q136 -131 308 -131q144 0 237 56q111 69 111 206v7q0 110 -86 160q-80 47 -356 99q-108 20 -176 42q-85 28 -141 68q-127 92 -127 283q0 114 62 199q55 75 157 125q88 42 205 64q100 18 206 18q120 0 264 -27l130 -29l129 -32 l-105 -357l-26 11q-28 154 -134 258q-114 110 -268 110q-120 0 -198 -59q-86 -65 -86 -180q0 -91 66 -133q73 -46 302 -91q136 -26 213 -49q101 -30 164 -70q141 -90 141 -276q0 -118 -62 -213q-56 -85 -158 -146q-92 -54 -210 -83q-109 -27 -219 -27q-175 0 -329 28 q-176 33 -314 101z" />
<glyph unicode="T" horiz-adv-x="1593" d="M49 946l106 365h1287l106 -365h-45q-34 44 -79 90q-52 53 -105 95q-134 106 -230 106q-110 0 -110 -133v-715q0 -84 4 -132q5 -68 20 -112q36 -107 144 -112v-41l-348 8l-365 -8v41q119 5 158 112q17 44 22 112q4 47 4 132v715q0 133 -110 133q-96 0 -230 -106 q-53 -42 -105 -95q-45 -46 -79 -90h-45z" />
<glyph unicode="U" horiz-adv-x="1554" d="M45 1286v33l305 -8l316 8v-33q-156 -21 -156 -229v-602q0 -186 77 -289q85 -113 257 -113q246 0 350 123q96 112 96 359v337q0 64 -8 120q-10 70 -31 125q-56 138 -186 167v35l276 -8q39 0 119 4t117 4v-33q-106 -31 -164 -169q-47 -113 -47 -245v-354q0 -559 -600 -559 q-115 0 -218 20q-114 22 -199 67q-200 105 -200 312v699q0 128 -21 174t-83 55z" />
<glyph unicode="V" horiz-adv-x="1630" d="M36 1272v47q37 0 85 -1l253 -7l309 8v-41q-115 -9 -115 -88q0 -27 27 -92q26 -62 62 -123l317 -541l219 451q30 64 47 139q17 73 17 124q0 112 -144 130v41q40 0 85 -1l202 -7q37 0 114 4t111 4v-37q-76 -29 -162 -124q-53 -60 -107 -142q-60 -93 -120 -213l-383 -770 q-5 -13 -21 -41l-14 -23q-7 -10 -10 -10h-4q-7 0 -23 28l-13 24l-6 12l-591 1120q-59 114 -135 129z" />
<glyph unicode="W" horiz-adv-x="2048" d="M12 1292v27l307 -8l318 8v-25q-111 -14 -111 -127q0 -36 25 -96l241 -551l303 820q5 14 10 24q13 29 21 29h4q7 0 15 -19l372 -850l148 398q35 98 35 184q0 163 -162 186v27q43 0 125 -4t118 -4l191 7q36 1 63 1v-23q-111 -83 -182 -192q-61 -93 -127 -262l-317 -809 q-9 -25 -22 -48q-15 -26 -23 -26h-4q-8 0 -16 16l-345 859l-321 -801q-5 -12 -10 -23q-6 -14 -11 -24q-14 -27 -20 -27h-4q-7 0 -15 15q-7 15 -24 59l-459 1126q-39 95 -123 133z" />
<glyph unicode="X" horiz-adv-x="1554" d="M16 -8v39q88 31 211 135q98 82 164 160l229 266l-290 452l-27 41q-34 48 -65 84q-83 96 -156 113v37l331 -8l346 8v-33q-108 -15 -108 -84q0 -28 44 -100l49 -76q8 -11 11 -16l109 -168l115 164q79 114 79 170q0 93 -114 110v33q29 0 66 -1l192 -7l268 8v-37 q-75 -19 -180 -102q-85 -67 -152 -144l-227 -258l348 -499q30 -43 53 -73q34 -43 66 -74q83 -82 160 -91v-49q-43 0 -100 1l-294 7l-380 -8v39q116 17 116 100q0 33 -27 90q-22 45 -65 113l-123 194l-135 -184q-86 -118 -86 -199q0 -48 45 -82q39 -29 90 -32v-39l-287 8 l-205 -7q-40 -1 -71 -1z" />
<glyph unicode="Y" horiz-adv-x="1630" d="M24 1286v33l344 -8l356 8v-27q-51 -10 -79 -28q-39 -27 -39 -72q0 -58 116 -209l215 -281l154 230q50 74 77 128q32 65 32 105q0 54 -45 86q-36 26 -95 35v33l269 -8l278 8v-37q-213 -80 -362 -295l-271 -385v-213q0 -84 4 -132q5 -68 19 -112q34 -107 135 -112v-41 l-338 8l-338 -8v41q101 5 135 112q14 44 19 112q4 48 4 132v180l-342 489q-41 55 -76 96q-102 118 -172 132z" />
<glyph unicode="Z" horiz-adv-x="1441" d="M61 0l723 1055q59 85 59 133q0 30 -40 45q-29 12 -64 12q-372 0 -615 -301h-38l122 367h1117l-629 -1041q-84 -132 -84 -166q0 -38 104 -38q174 0 356 121q155 104 273 264h37l-152 -451h-1169z" />
<glyph unicode="[" horiz-adv-x="757" d="M217 -72v1106q0 203 124 270q53 29 137 40q62 8 171 8v-82q-106 0 -146 -66q-30 -51 -30 -170v-1106q0 -119 30 -170q40 -65 146 -65v-82q-109 0 -171 8q-84 10 -137 39q-124 68 -124 270z" />
<glyph unicode="\" horiz-adv-x="569" d="M-104 1352h242l538 -1393h-239z" />
<glyph unicode="]" horiz-adv-x="757" d="M108 -307q106 0 146 65q30 51 30 170v1106q0 119 -30 170q-40 66 -146 66v82q109 0 171 -8q84 -11 137 -40q124 -67 124 -270v-1106q0 -202 -124 -270q-53 -29 -137 -39q-62 -8 -171 -8v82z" />
<glyph unicode="^" horiz-adv-x="1228" d="M153 512l358 748h205l359 -748h-226l-235 520l-238 -520h-223z" />
<glyph unicode="_" horiz-adv-x="1024" d="M0 -154h1024v-102h-1024v102z" />
<glyph unicode="`" horiz-adv-x="569" d="M118 905q0 122 76 256q68 117 160 191l38 -43q-108 -105 -108 -217q175 0 166 -187q0 -70 -48 -120q-48 -52 -118 -52t-118 52q-48 50 -48 120z" />
<glyph unicode="a" horiz-adv-x="1251" d="M51 287q0 103 67 181q59 68 169 114q96 40 225 60q111 17 231 17h45v91q0 280 -239 280q-248 -3 -336 -350l-31 -8l-86 323l133 39q74 21 132 34q130 28 241 28h27q221 0 334 -100q126 -113 126 -363v-410q0 -163 111 -192v-31h-346l-45 170q-62 -98 -135 -146 q-83 -55 -191 -55q-180 0 -294 69q-138 83 -138 249zM387 274q0 -87 46 -150q51 -69 134 -69q119 0 179 130q23 51 35 117q9 57 9 114v178h-37q-160 0 -257 -75q-109 -85 -109 -245z" />
<glyph unicode="b" horiz-adv-x="1402" d="M10 0v31q139 34 139 172v1026q0 152 -110 162v30q225 27 415 64l-3 -144l-2 -73l-1 -369h4q122 197 359 197q215 0 369 -170q149 -164 149 -381q0 -236 -148 -404q-151 -172 -370 -172q-129 0 -219 41q-79 37 -164 123l-43 -133h-375zM446 532q0 -485 273 -485 q274 0 274 485q0 486 -272 486q-275 0 -275 -486z" />
<glyph unicode="c" horiz-adv-x="1251" d="M83 532q0 262 171 415q166 149 437 149q116 0 243 -38q105 -32 228 -93l-98 -330l-33 10q-1 155 -76 263q-85 122 -231 122q-87 0 -151 -51q-57 -45 -94 -128q-31 -70 -47 -162q-13 -77 -13 -157q0 -205 75 -329q91 -148 277 -148q117 0 211 78q89 73 127 189l57 -56 q-67 -158 -201 -231q-121 -66 -304 -66q-245 0 -409 154q-169 159 -169 409z" />
<glyph unicode="d" horiz-adv-x="1402" d="M65 532q0 222 147 390q153 174 371 174q235 0 346 -142h4v271q0 152 -110 161v31q208 31 409 68v-1174q0 -96 30 -173q36 -92 99 -107v-31h-366l-43 182h-4q-107 -213 -365 -213q-218 0 -371 174q-147 168 -147 389zM401 532q0 -485 272 -485q260 0 260 485 q0 486 -258 486q-274 0 -274 -486z" />
<glyph unicode="e" horiz-adv-x="1290" d="M77 532q0 241 150 399q156 165 409 165q220 0 369 -116q159 -123 170 -331h-762v-117q0 -92 15 -168q17 -90 53 -154q89 -155 284 -155q151 0 262 125q95 108 133 269l54 -39q-109 -441 -578 -441q-251 0 -409 170q-150 160 -150 393zM413 715h426q-3 63 -10 104 q-9 61 -28 103q-51 108 -175 108q-125 0 -175 -108q-19 -42 -29 -103q-6 -41 -9 -104z" />
<glyph unicode="f" horiz-adv-x="720" d="M4 926l39 106h141q0 296 176 389q76 40 197 54q52 6 120 8q50 2 130 2l-113 -314l-26 11l-8 40q-2 9 -4 17l-17 70q-28 84 -74 84q-86 0 -86 -131v-230h203l-35 -106h-168v-676q0 -207 139 -227v-31q-32 0 -72 1l-145 6q-40 1 -71 1q-32 0 -72 -1l-145 -6q-40 -1 -72 -1 v31q139 20 139 227v676h-176z" />
<glyph unicode="g" horiz-adv-x="1290" d="M40 -123q0 113 145 171q53 21 126 34q28 5 61 10l53 6v4q-211 34 -211 129q0 110 266 125v4q-158 30 -254 109q-116 94 -116 242q0 191 177 297q147 88 353 88q85 0 176 -27q74 54 108 76q51 33 94 51q90 37 234 37l-102 -287q-5 6 -11 14l-30 36q-21 26 -37 39 q-41 34 -110 34q-47 0 -68 -27q114 -52 179 -129q77 -89 77 -202q0 -190 -167 -287q-68 -40 -162 -63q-79 -19 -175 -27q-119 -10 -119 -46q0 -40 195 -65l120 -16q60 -8 105 -17q104 -20 165 -46q136 -60 136 -201q0 -99 -66 -171q-58 -61 -162 -100q-85 -33 -197 -49 q-88 -12 -175 -12q-90 0 -174 8q-114 11 -201 36q-106 30 -164 80q-69 59 -69 142zM339 -131q0 -97 66 -142q72 -51 239 -51t240 51q65 45 65 142t-65 142q-73 50 -240 50t-239 -50q-66 -45 -66 -142zM425 715q0 -141 47 -223q53 -93 158 -93q104 0 158 93q47 82 47 223 t-47 223q-54 92 -158 92q-105 0 -158 -92q-47 -82 -47 -223z" />
<glyph unicode="h" d="M22 -8v31q78 21 111 107q28 74 28 212v889q0 127 -119 151v31q202 21 418 72v-623h4q111 234 363 234q164 0 267 -100q104 -101 104 -263v-543q0 -141 135 -167v-31l-285 8l-274 -8v31q125 14 125 167v484q0 125 -38 203q-51 104 -161 104q-133 0 -191 -127 q-49 -109 -49 -332v-180q0 -138 28 -212q33 -86 112 -107v-31q-33 0 -73 1l-145 6q-40 1 -71 1q-32 0 -72 -1l-145 -6q-40 -1 -72 -1z" />
<glyph unicode="i" horiz-adv-x="681" d="M63 -8v31q139 20 139 223v612q0 97 -110 119v31q202 15 409 57v-819q0 -203 140 -223v-31q-33 0 -73 1l-145 6q-40 1 -71 1q-32 0 -72 -1l-145 -6q-40 -1 -72 -1zM190 1319q0 66 44 115q46 51 112 51t111 -51q44 -49 44 -115t-44 -115q-45 -51 -111 -51t-112 51 q-44 49 -44 115z" />
<glyph unicode="j" horiz-adv-x="681" d="M-202 -389l119 350l39 -8q0 -82 29 -157q38 -95 102 -95q65 0 97 111q24 83 24 202v844q0 97 -111 119v31q203 15 410 57v-959q0 -158 -59 -264q-53 -95 -157 -149q-90 -48 -226 -67q-107 -15 -267 -15zM195 1319q0 66 44 115q46 51 112 51t112 -51q44 -49 44 -115 t-44 -115q-46 -51 -112 -51t-112 51q-44 49 -44 115z" />
<glyph unicode="k" horiz-adv-x="1290" d="M43 -8v31q78 21 111 107q28 74 28 212v889q0 127 -119 151v31q202 21 418 72v-850l174 141q131 108 131 156q0 50 -55 69v31q40 0 118 -4t114 -4q35 0 117 4t122 4v-31q-47 0 -140 -52q-31 -18 -71 -43l-36 -24l-341 -237v-4q168 -7 236 -36q62 -26 113 -105l202 -322 q65 -108 146 -155v-31q-35 0 -107 4l-102 4q-21 0 -49 -1l-50 -3q-68 -4 -104 -4l-285 538q-19 39 -61 39q-72 0 -72 -139v-88q0 -138 28 -212q33 -86 112 -107v-31q-33 0 -73 1l-145 6q-40 1 -71 1q-32 0 -72 -1l-145 -6q-40 -1 -72 -1z" />
<glyph unicode="l" horiz-adv-x="681" d="M63 -8v31q78 21 111 107q28 74 28 212v889q0 127 -119 151v31q195 20 424 72l-6 -219v-924q0 -138 28 -212q33 -86 112 -107v-31q-33 0 -73 1l-145 6q-40 1 -71 1q-32 0 -72 -1l-145 -6q-40 -1 -72 -1z" />
<glyph unicode="m" horiz-adv-x="2048" d="M30 -8v31q78 21 111 107q28 74 28 212v436q0 98 -40 149q-31 39 -87 50v31q207 15 404 57v-203h4q110 234 360 234q280 0 344 -228q119 228 369 228q164 0 267 -100q104 -101 104 -263v-543q0 -141 135 -167v-31l-285 8l-274 -8v31q125 14 125 167v433q0 162 -38 248 q-48 110 -161 110q-105 0 -164 -119q-51 -102 -51 -239v-433q0 -141 135 -167v-31l-285 8l-274 -8v31q125 14 125 167v433q0 162 -38 248q-48 110 -161 110q-104 0 -164 -119q-51 -102 -51 -239v-281q0 -138 28 -212q33 -86 112 -107v-31q-33 0 -73 1l-145 6q-40 1 -71 1 q-32 0 -72 -1l-145 -6q-40 -1 -72 -1z" />
<glyph unicode="n" d="M38 -8v31q78 21 111 107q28 74 28 212v436q0 98 -40 149q-31 39 -87 50v31q203 15 410 57v-203h4q111 234 362 234q164 0 267 -100q104 -101 104 -263v-543q0 -141 135 -167v-31l-284 8l-275 -8v31q125 14 125 167v484q0 125 -38 203q-50 104 -160 104q-117 0 -178 -148 q-24 -58 -36 -130q-10 -61 -10 -117v-244q0 -138 28 -212q33 -86 112 -107v-31q-33 0 -73 1l-145 6q-40 1 -71 1q-32 0 -72 -1l-145 -6q-40 -1 -72 -1z" />
<glyph unicode="o" d="M65 532q0 252 186 412q177 152 432 152q256 0 433 -152q186 -160 186 -412q0 -251 -186 -411q-177 -152 -433 -152q-255 0 -432 152q-186 160 -186 411zM401 532q0 -77 11 -152q14 -92 42 -162q34 -84 86 -130q60 -53 143 -53q84 0 144 53q52 46 86 130q28 70 42 162 q11 75 11 152q0 78 -11 153q-14 92 -42 162q-34 84 -86 130q-60 53 -144 53q-83 0 -143 -53q-52 -46 -86 -130q-28 -70 -42 -162q-11 -75 -11 -153z" />
<glyph unicode="p" horiz-adv-x="1402" d="M10 -367q77 12 110 68q27 46 27 125v977q0 152 -110 162v30q119 14 208 29q109 18 193 41v-193h4q113 224 369 224q215 0 369 -170q149 -164 149 -381q0 -236 -148 -404q-151 -172 -370 -172q-228 0 -365 131v-258q0 -181 166 -204v-35l-307 8l-295 -8v30zM446 532 q0 -485 273 -485q274 0 274 485q0 486 -272 486q-275 0 -275 -486z" />
<glyph unicode="q" horiz-adv-x="1402" d="M65 532q0 222 147 390q153 174 371 174q126 0 218 -42q78 -36 147 -110l30 121h355v-31q-94 -10 -94 -162v-1046q0 -79 27 -125q33 -56 110 -68v-30l-295 8l-307 -8v35q165 23 165 204v344h-4q-31 -90 -107 -146q-95 -71 -245 -71q-218 0 -371 174q-147 168 -147 389z M401 532q0 -485 272 -485q266 0 266 485q0 486 -264 486q-274 0 -274 -486z" />
<glyph unicode="r" horiz-adv-x="872" d="M32 -8v31q78 21 111 107q28 74 28 212v436q0 98 -40 149q-31 39 -87 50v31q198 15 416 57l-3 -128l-1 -169h4q38 129 113 218q92 110 207 110h92l-123 -357q-32 36 -52 50q-31 22 -67 22q-82 0 -124 -99q-36 -83 -36 -212v-158q0 -138 28 -212q33 -86 112 -107v-31 q-33 0 -73 1l-145 6q-40 1 -71 1q-32 0 -72 -1l-145 -6q-40 -1 -72 -1z" />
<glyph unicode="s" horiz-adv-x="1175" d="M55 78l102 340h7q55 -173 148 -268q112 -115 278 -115q86 0 156 56q75 59 75 145q0 96 -109 139q-42 16 -112 30l-129 23q-82 15 -133 32q-67 22 -111 53q-106 76 -106 235q0 185 171 276q70 37 164 56q82 16 172 16q100 0 224 -27q51 -11 110 -28l107 -31l-96 -303 l-27 12q-6 136 -98 224q-92 87 -228 87q-200 0 -200 -188q0 -83 83 -124q69 -33 267 -65q78 -12 129 -28q67 -20 112 -51q109 -75 109 -234q0 -106 -55 -183q-48 -69 -138 -114q-78 -39 -183 -58q-89 -16 -187 -16q-259 0 -502 109z" />
<glyph unicode="t" horiz-adv-x="757" d="M38 926l18 106q120 14 232 101q95 72 174 188h22v-289h250l-41 -106h-209v-629q0 -123 26 -182q34 -80 124 -84v-31h-342q-113 0 -113 166l6 297v463h-147z" />
<glyph unicode="u" d="M51 973v33q118 10 210 22q114 16 214 37l-11 -191q-5 -139 -5 -268v-203q0 -125 37 -203q51 -104 161 -104q124 0 187 131q53 111 53 285v334q0 112 -115 131v31q117 10 210 22q113 15 210 35q-6 -375 -6 -756q0 -238 121 -278v-31h-363l-51 201q-119 -232 -360 -232 q-187 0 -288 119q-95 111 -95 301l-5 481q0 79 -104 103z" />
<glyph unicode="v" horiz-adv-x="1290" d="M26 993v39l287 -8l297 8v-31q-49 -9 -80 -29q-41 -26 -41 -65q0 -37 20 -73l258 -467l150 272q65 116 65 244q0 88 -127 118v31q35 0 103 -4l98 -4l101 4q71 4 106 4v-31q-99 -68 -153 -139q-39 -53 -103 -180l-322 -649q-9 -23 -20 -41q-14 -23 -21 -23h-4q-9 0 -43 64 l-378 735q-34 63 -60 105q-22 36 -39 57q-13 16 -35 29z" />
<glyph unicode="w" horiz-adv-x="1933" d="M26 1001v31l295 -8l307 8v-31q-51 -10 -83 -33q-40 -29 -40 -71q0 -31 21 -72l223 -444l289 651q29 64 35 64h4q4 0 19 -24q13 -21 22 -40l325 -641l158 361q11 26 16 57q4 24 4 49q0 103 -139 137v37q37 0 108 -4l101 -4q32 0 106 4q75 4 111 4v-31q-88 -55 -160 -154 q-59 -81 -108 -192l-282 -643q-5 -11 -10 -20q-13 -23 -22 -23h-4q-12 0 -43 64l-315 635l-309 -649l-3 -6l-9 -20q-12 -24 -17 -24h-4q-7 0 -18 14q-14 17 -29 50l-369 776q-79 164 -180 192z" />
<glyph unicode="x" horiz-adv-x="1214" d="M30 -8v31q138 91 248 206l207 242l-131 193q-14 19 -31 47l-31 48q-38 60 -65 95q-79 106 -170 147v31l272 -8l283 8v-31q-76 -45 -76 -88q0 -16 17 -50l38 -66l74 -117l84 117q55 77 55 125q0 52 -59 79v31q34 0 100 -4l96 -4l99 4q71 4 104 4v-31l-73 -39 q-41 -23 -74 -44q-82 -54 -127 -107l-162 -190l262 -379q63 -91 94 -124q48 -52 121 -95v-31l-307 8l-295 -8v31q86 21 86 94q0 13 -4 27q-5 19 -14 34l-132 228l-139 -191q-19 -25 -29 -51q-8 -21 -8 -35q0 -82 95 -106v-31q-35 0 -106 4l-101 4l-98 -4q-68 -4 -103 -4z " />
<glyph unicode="y" horiz-adv-x="1327" d="M24 1001v31q35 0 78 -1l227 -7l316 8v-31q-55 -9 -88 -33q-41 -30 -41 -79q0 -31 36 -98l240 -439l184 404q27 56 27 104q0 103 -127 141v31q37 0 108 -4t103 -4l105 4q75 4 112 4v-31q-77 -32 -144 -119q-26 -34 -53 -78q-20 -34 -43 -79l-360 -696q-134 -260 -229 -331 q-100 -75 -340 -87l127 344l30 -16q0 -49 47 -82q41 -29 91 -29q147 0 147 164q0 92 -80 252l-264 534q-45 91 -96 149q-58 64 -113 74z" />
<glyph unicode="z" horiz-adv-x="1175" d="M45 0l578 805q49 74 49 108q0 33 -35 45q-22 9 -60 9q-138 0 -262 -83q-104 -69 -198 -196h-31l104 344h891l-536 -817q-45 -68 -45 -111q0 -38 55 -38q329 0 537 294h40l-118 -360h-969z" />
<glyph unicode="{" horiz-adv-x="757" d="M61 481q156 45 156 230v358q0 173 90 232q77 51 291 51v-31q-125 -32 -125 -240v-340q0 -118 -34 -169q-41 -64 -159 -89v-4q118 -24 159 -88q34 -52 34 -170v-340q0 -207 125 -239v-31q-214 0 -291 51q-90 58 -90 232v358q0 184 -156 229z" />
<glyph unicode="|" horiz-adv-x="454" d="M108 -512v2048h238v-2048h-238z" />
<glyph unicode="}" horiz-adv-x="757" d="M159 -358q125 32 125 239v340q0 118 33 170q41 64 159 88v4q-118 25 -159 89q-33 51 -33 169v340q0 208 -125 240v31q214 0 291 -51q90 -59 90 -232v-358q0 -185 156 -230q-156 -45 -156 -229v-358q0 -174 -90 -232q-77 -51 -291 -51v31z" />
<glyph unicode="~" horiz-adv-x="1228" d="M141 532q41 78 93 121q70 56 163 56q48 0 111 -20q47 -15 116 -46l112 -49q62 -25 97 -25q55 0 103 47q30 29 77 101l74 -185q-29 -41 -48 -63q-28 -35 -55 -57q-68 -56 -153 -56q-52 0 -107 20q-41 15 -102 48q-59 33 -107 50q-64 22 -128 22q-61 0 -108 -47 q-34 -35 -64 -101z" />
<glyph unicode="&#xa8;" horiz-adv-x="1024" />
<glyph unicode="&#xa9;" horiz-adv-x="1638" d="M143 655q0 294 190 494q194 203 486 203t485 -203q191 -200 191 -494q0 -293 -191 -493q-193 -203 -485 -203t-486 203q-190 200 -190 493zM309 655q0 -234 136 -395q144 -172 374 -172t374 172q136 161 136 395t-136 396q-144 172 -374 172t-374 -172 q-136 -162 -136 -396zM432 684q0 152 91 255q54 60 135 93q92 37 214 37q65 0 117 -11l44 -12l40 -14q43 -11 43 -41v-139h-45q-25 72 -65 113q-52 55 -130 55q-197 0 -201 -328q-1 -166 40 -253q48 -103 157 -103q150 0 232 180h43l-29 -149q-2 -22 -57 -41l-7 -2 q-4 -2 -7 -3q-10 -3 -19 -6q-24 -7 -48 -13q-66 -15 -124 -15q-424 0 -424 397z" />
<glyph unicode="&#xad;" horiz-adv-x="681" d="M63 416l59 233h496l-59 -233h-496z" />
<glyph unicode="&#xae;" horiz-adv-x="1638" d="M143 655q0 294 190 494q194 203 486 203t485 -203q191 -200 191 -494q0 -293 -191 -493q-193 -203 -485 -203t-486 203q-190 200 -190 493zM309 655q0 -234 136 -395q144 -172 374 -172t374 172q136 161 136 395t-136 396q-144 172 -374 172t-374 -172 q-136 -162 -136 -396zM493 307v39q60 3 74 18q7 8 9 22q1 7 1 16v547q0 10 -1 16q-2 15 -9 23q-14 15 -74 18v41h398q215 0 215 -195q0 -152 -150 -197l171 -247q32 -45 56 -74v-27h-182q-34 0 -91 114l-51 106q-32 65 -54 104h-48l1 -229q0 -9 1 -16q2 -14 9 -22 q13 -15 71 -18v-39h-346zM757 680h50q56 0 82 55q20 42 20 109q0 153 -94 153h-58v-317z" />
<glyph unicode="&#xb4;" horiz-adv-x="1024" />
<glyph unicode="&#xb6;" horiz-adv-x="1228" d="M233 952q0 359 379 359h450v-51q-147 0 -147 -101v-1413h-107v1514h-110v-1514h-107v819q-179 0 -272 108q-86 100 -86 279z" />
<glyph unicode="&#xbc;" horiz-adv-x="2048" d="M245 512v31q133 7 133 135v426q0 93 -113 102v31q91 12 161 24q87 14 161 29v-612q0 -128 133 -135v-31l-237 4zM511 -31l889 1321h137l-889 -1321h-137zM984 182l19 60l506 514h88v-488q142 -3 221 121h22l-77 -219q-100 15 -166 12q0 -148 114 -155v-31l-219 4l-221 -4 v31q117 7 117 155h-404zM1093 258h295v299z" />
<glyph unicode="&#xbd;" horiz-adv-x="2048" d="M245 512v31q133 7 133 135v426q0 93 -113 102v31q91 12 161 24q87 14 161 29v-612q0 -128 133 -135v-31l-237 4zM440 -31l888 1321h138l-889 -1321h-137zM1132 0q0 119 117 218q44 37 112 78l117 66q113 64 113 207q0 152 -160 152q-73 0 -134 -65q-55 -60 -81 -150 l-17 -10l-59 219q145 59 315 59q137 0 243 -52q130 -65 130 -181q0 -101 -101 -168q-76 -51 -200 -76q-46 -9 -75 -17q-43 -11 -74 -26q-79 -39 -89 -107h312q170 0 239 117h23l-92 -264h-639z" />
<glyph unicode="&#xbe;" horiz-adv-x="2048" d="M165 563l74 225l22 -10q0 -97 71 -162t179 -65q180 0 180 172q0 79 -56 127q-52 43 -126 45q-33 0 -86 -16v84q47 -15 86 -15q145 0 145 156q0 133 -151 133q-82 0 -143 -61q-57 -56 -70 -134l-23 -8l-51 203q96 27 155 38q80 15 159 15q58 0 111 -6q68 -9 119 -27 q132 -48 132 -155q0 -89 -95 -134q-37 -18 -89 -29q-40 -9 -90 -13v-4q113 -8 199 -50q112 -54 112 -145q0 -125 -135 -185q-54 -23 -126 -35q-61 -9 -128 -9q-213 0 -375 65zM583 -31l889 1321h137l-889 -1321h-137zM1025 182l19 60l505 514h89v-488q141 -3 221 121h22 l-78 -219q-100 15 -165 12q0 -148 114 -155v-31l-219 4l-221 -4v31q117 7 117 155h-404zM1134 258h295v299z" />
<glyph unicode="&#xc0;" horiz-adv-x="1669" d="M12 -8v37q51 10 130 91q91 94 165 232l501 950l13 23q16 27 25 27h4q9 0 30 -30q17 -24 29 -48l533 -1000q68 -126 120 -180q45 -45 97 -55v-47l-349 8l-333 -8v41l45 11q22 6 34 15q31 22 31 74q0 67 -69 199l-101 192h-434l-78 -159q-49 -118 -49 -168q0 -133 156 -164 v-41q-28 0 -65 1l-189 7q-37 0 -120 -4t-126 -4zM497 1739q0 96 115 96q45 0 77 -22q13 -9 29 -26l31 -32l254 -305h-137l-192 119q-177 108 -177 170zM516 594h368l-186 371z" />
<glyph unicode="&#xc1;" horiz-adv-x="1669" d="M12 -8v37q51 10 130 91q91 94 165 232l501 950l13 23q16 27 25 27h4q9 0 30 -30q17 -24 29 -48l533 -1000q68 -126 120 -180q45 -45 97 -55v-47l-349 8l-333 -8v41l45 11q22 6 34 15q31 22 31 74q0 67 -69 199l-101 192h-434l-78 -159q-49 -118 -49 -168q0 -133 156 -164 v-41q-28 0 -65 1l-189 7q-37 0 -120 -4t-126 -4zM516 594h368l-186 371zM665 1450l256 305q38 44 59 58q32 22 76 22q115 0 115 -96q0 -62 -125 -137l-243 -152h-138z" />
<glyph unicode="&#xc2;" horiz-adv-x="1669" d="M12 -8v37q51 10 130 91q91 94 165 232l501 950l13 23q16 27 25 27h4q9 0 30 -30q17 -24 29 -48l533 -1000q68 -126 120 -180q45 -45 97 -55v-47l-349 8l-333 -8v41l45 11q22 6 34 15q31 22 31 74q0 67 -69 199l-101 192h-434l-78 -159q-49 -118 -49 -168q0 -133 156 -164 v-41q-28 0 -65 1l-189 7q-37 0 -120 -4t-126 -4zM477 1450l248 365h219l250 -365h-135l-226 197l-225 -197h-131zM516 594h368l-186 371z" />
<glyph unicode="&#xc3;" horiz-adv-x="1669" d="M12 -8v37q51 10 130 91q91 94 165 232l501 950l13 23q16 27 25 27h4q9 0 30 -30q17 -24 29 -48l533 -1000q68 -126 120 -180q45 -45 97 -55v-47l-349 8l-333 -8v41l45 11q22 6 34 15q31 22 31 74q0 67 -69 199l-101 192h-434l-78 -159q-49 -118 -49 -168q0 -133 156 -164 v-41q-28 0 -65 1l-189 7q-37 0 -120 -4t-126 -4zM444 1497q28 129 83 194q67 81 183 81q52 0 166 -52l44 -19q25 -11 43 -17q44 -17 69 -17q36 0 62 34q18 24 32 66h98q-21 -118 -79 -191q-70 -89 -179 -89q-41 0 -91 16q-35 12 -87 37l-77 37q-41 16 -70 16q-69 0 -99 -96 h-98zM516 594h368l-186 371z" />
<glyph unicode="&#xc8;" horiz-adv-x="1517" d="M28 -8v41q108 5 144 112q15 44 20 112q4 48 4 132v668q0 203 -121 229v33q37 0 81 -1l220 -7l887 8l96 -361h-45q-238 287 -563 287h-195v-518h121q72 0 131 9q69 10 122 33q127 54 169 181h39v-510h-33q-28 108 -149 165q-112 52 -279 52h-121v-299q0 -158 49 -218 q53 -64 201 -64q179 0 367 125q80 54 155 126q68 65 127 140l33 -14l-149 -461l-963 8zM409 1739q0 96 115 96q45 0 77 -22q13 -9 29 -26l31 -32l254 -305h-137l-193 119q-176 108 -176 170z" />
<glyph unicode="&#xc9;" horiz-adv-x="1517" d="M28 -8v41q108 5 144 112q15 44 20 112q4 48 4 132v668q0 203 -121 229v33q37 0 81 -1l220 -7l887 8l96 -361h-45q-238 287 -563 287h-195v-518h121q72 0 131 9q69 10 122 33q127 54 169 181h39v-510h-33q-28 108 -149 165q-112 52 -279 52h-121v-299q0 -158 49 -218 q53 -64 201 -64q179 0 367 125q80 54 155 126q68 65 127 140l33 -14l-149 -461l-963 8zM577 1450l256 305q38 44 58 58q33 22 77 22q115 0 115 -96q0 -62 -125 -137l-244 -152h-137z" />
<glyph unicode="&#xca;" horiz-adv-x="1517" d="M28 -8v41q108 5 144 112q15 44 20 112q4 48 4 132v668q0 203 -121 229v33q37 0 81 -1l220 -7l887 8l96 -361h-45q-238 287 -563 287h-195v-518h121q72 0 131 9q69 10 122 33q127 54 169 181h39v-510h-33q-28 108 -149 165q-112 52 -279 52h-121v-299q0 -158 49 -218 q53 -64 201 -64q179 0 367 125q80 54 155 126q68 65 127 140l33 -14l-149 -461l-963 8zM388 1450l248 365h219l250 -365h-135l-225 197l-225 -197h-132z" />
<glyph unicode="&#xcc;" horiz-adv-x="796" d="M61 0v41q101 5 135 112q14 44 19 112q4 48 4 132v711q0 96 -28 134q-19 26 -77 44v33q32 0 72 -1l143 -6q39 -1 70 -1t70 1l143 6q40 1 72 1v-33q-105 -27 -105 -182v-707q0 -83 4 -132q4 -68 17 -112q31 -107 120 -112v-41h-659zM73 1739q0 96 115 96q45 0 77 -22 q13 -9 29 -26l31 -32l254 -305h-137l-193 119q-176 108 -176 170z" />
<glyph unicode="&#xcd;" horiz-adv-x="796" d="M61 0v41q101 5 135 112q14 44 19 112q4 48 4 132v711q0 96 -28 134q-19 26 -77 44v33q32 0 72 -1l143 -6q39 -1 70 -1t70 1l143 6q40 1 72 1v-33q-105 -27 -105 -182v-707q0 -83 4 -132q4 -68 17 -112q31 -107 120 -112v-41h-659zM241 1450l256 305q38 44 59 58 q32 22 76 22q115 0 115 -96q0 -62 -125 -137l-244 -152h-137z" />
<glyph unicode="&#xd0;" horiz-adv-x="1630" d="M24 657v76h162v324q0 202 -105 229v33q32 0 72 -1l143 -6q40 -1 70 -1h465q115 0 234 -36q131 -39 234 -114q116 -84 180 -203q73 -134 73 -303t-73 -302q-64 -119 -180 -203q-103 -75 -234 -114q-119 -36 -234 -36l-552 -3l-150 -4q-56 -1 -101 -1v41q101 5 135 112 q14 44 19 112q4 48 4 132v268h-162zM546 389q0 -215 41 -272q37 -51 172 -51q111 0 194 58q72 52 119 147q41 82 61 191q17 93 17 193q0 148 -20 249q-22 113 -72 185q-108 156 -377 156h-135v-512h285v-76h-285v-268z" />
<glyph unicode="&#xd2;" horiz-adv-x="1705" d="M77 655q0 166 65 302q61 126 174 218q218 177 535 177q318 0 535 -177q113 -92 174 -218q65 -136 65 -302q0 -165 -65 -301q-61 -127 -174 -218q-217 -177 -535 -177q-317 0 -535 177q-113 91 -174 218q-65 136 -65 301zM478 655q0 -630 373 -630t373 630q0 631 -373 631 t-373 -631zM528 1739q0 96 114 96q45 0 77 -22q13 -9 30 -26l30 -32l254 -305h-137l-192 119q-176 108 -176 170z" />
<glyph unicode="&#xd3;" horiz-adv-x="1705" d="M77 655q0 166 65 302q61 126 174 218q218 177 535 177q318 0 535 -177q113 -92 174 -218q65 -136 65 -302q0 -165 -65 -301q-61 -127 -174 -218q-217 -177 -535 -177q-317 0 -535 177q-113 91 -174 218q-65 136 -65 301zM478 655q0 -630 373 -630t373 630q0 631 -373 631 t-373 -631zM695 1450l256 305q38 44 59 58q32 22 77 22q114 0 114 -96q0 -62 -125 -137l-243 -152h-138z" />
<glyph unicode="&#xd4;" horiz-adv-x="1705" d="M77 655q0 166 65 302q61 126 174 218q218 177 535 177q318 0 535 -177q113 -92 174 -218q65 -136 65 -302q0 -165 -65 -301q-61 -127 -174 -218q-217 -177 -535 -177q-317 0 -535 177q-113 91 -174 218q-65 136 -65 301zM478 655q0 -630 373 -630t373 630q0 631 -373 631 t-373 -631zM507 1450l248 365h219l250 -365h-135l-226 197l-225 -197h-131z" />
<glyph unicode="&#xd5;" horiz-adv-x="1705" d="M77 655q0 166 65 302q61 126 174 218q218 177 535 177q318 0 535 -177q113 -92 174 -218q65 -136 65 -302q0 -165 -65 -301q-61 -127 -174 -218q-217 -177 -535 -177q-317 0 -535 177q-113 91 -174 218q-65 136 -65 301zM474 1497q28 129 83 194q67 81 184 81 q51 0 165 -52l45 -19q24 -11 42 -17q45 -17 69 -17q36 0 62 34q18 24 32 66h99q-22 -118 -80 -191q-69 -89 -178 -89q-42 0 -92 16q-35 12 -87 37l-77 37q-41 16 -70 16q-69 0 -98 -96h-99zM478 655q0 -630 373 -630t373 630q0 631 -373 631t-373 -631z" />
<glyph unicode="&#xd9;" horiz-adv-x="1554" d="M45 1286v33l305 -8l316 8v-33q-156 -21 -156 -229v-602q0 -186 77 -289q85 -113 257 -113q246 0 350 123q96 112 96 359v337q0 64 -8 120q-10 70 -31 125q-56 138 -186 167v35l276 -8q39 0 119 4t117 4v-33q-106 -31 -164 -169q-47 -113 -47 -245v-354q0 -559 -600 -559 q-115 0 -218 20q-114 22 -199 67q-200 105 -200 312v699q0 128 -21 174t-83 55zM500 1739q0 96 114 96q45 0 77 -22q13 -9 30 -26l31 -32l254 -305h-138l-192 119q-176 108 -176 170z" />
<glyph unicode="&#xda;" horiz-adv-x="1554" d="M45 1286v33l305 -8l316 8v-33q-156 -21 -156 -229v-602q0 -186 77 -289q85 -113 257 -113q246 0 350 123q96 112 96 359v337q0 64 -8 120q-10 70 -31 125q-56 138 -186 167v35l276 -8q39 0 119 4t117 4v-33q-106 -31 -164 -169q-47 -113 -47 -245v-354q0 -559 -600 -559 q-115 0 -218 20q-114 22 -199 67q-200 105 -200 312v699q0 128 -21 174t-83 55zM668 1450l256 305q37 44 58 58q32 22 77 22q114 0 114 -96q0 -62 -124 -137l-244 -152h-137z" />
<glyph unicode="&#xdd;" horiz-adv-x="1630" d="M24 1286v33l344 -8l356 8v-27q-51 -10 -79 -28q-39 -27 -39 -72q0 -58 116 -209l215 -281l154 230q50 74 77 128q32 65 32 105q0 54 -45 86q-36 26 -95 35v33l269 -8l278 8v-37q-213 -80 -362 -295l-271 -385v-213q0 -84 4 -132q5 -68 19 -112q34 -107 135 -112v-41 l-338 8l-338 -8v41q101 5 135 112q14 44 19 112q4 48 4 132v180l-342 489q-41 55 -76 96q-102 118 -172 132zM624 1450l256 305q38 44 58 58q33 22 77 22q115 0 115 -96q0 -62 -125 -137l-244 -152h-137z" />
<glyph unicode="&#xe0;" horiz-adv-x="1251" d="M51 287q0 103 67 181q59 68 169 114q96 40 225 60q111 17 231 17h45v91q0 280 -239 280q-248 -3 -336 -350l-31 -8l-86 323l133 39q74 21 132 34q146 32 268 28q221 0 334 -100q126 -113 126 -363v-410q0 -163 111 -192v-31h-346l-45 170q-62 -98 -135 -146 q-83 -55 -191 -55q-180 0 -294 69q-138 83 -138 249zM266 1491q0 96 115 96q45 0 77 -22q13 -9 29 -25l31 -33l254 -305h-137l-193 119q-176 108 -176 170zM387 274q0 -87 46 -150q51 -69 134 -69q119 0 179 130q23 51 35 117q9 57 9 114v178h-37q-160 0 -257 -75 q-109 -85 -109 -245z" />
<glyph unicode="&#xe1;" horiz-adv-x="1251" d="M51 287q0 103 67 181q59 68 169 114q96 40 225 60q111 17 231 17h45v91q0 280 -239 280q-248 -3 -336 -350l-31 -8l-86 323l133 39q74 21 132 34q146 32 268 28q221 0 334 -100q126 -113 126 -363v-410q0 -163 111 -192v-31h-346l-45 170q-62 -98 -135 -146 q-83 -55 -191 -55q-180 0 -294 69q-138 83 -138 249zM387 274q0 -87 46 -150q51 -69 134 -69q119 0 179 130q23 51 35 117q9 57 9 114v178h-37q-160 0 -257 -75q-109 -85 -109 -245zM434 1202l256 305q38 44 58 58q33 22 77 22q115 0 115 -96q0 -62 -125 -137l-244 -152 h-137z" />
<glyph unicode="&#xe2;" horiz-adv-x="1251" d="M51 287q0 103 67 181q59 68 169 114q96 40 225 60q111 17 231 17h45v91q0 280 -239 280q-248 -3 -336 -350l-31 -8l-86 323l133 39q74 21 132 34q146 32 268 28q221 0 334 -100q126 -113 126 -363v-410q0 -163 111 -192v-31h-346l-45 170q-62 -98 -135 -146 q-83 -55 -191 -55q-180 0 -294 69q-138 83 -138 249zM246 1202l247 365h220l249 -365h-135l-225 197l-225 -197h-131zM387 274q0 -87 46 -150q51 -69 134 -69q119 0 179 130q23 51 35 117q9 57 9 114v178h-37q-160 0 -257 -75q-109 -85 -109 -245z" />
<glyph unicode="&#xe3;" horiz-adv-x="1251" d="M51 287q0 103 67 181q59 68 169 114q96 40 225 60q111 17 231 17h45v91q0 280 -239 280q-248 -3 -336 -350l-31 -8l-86 323l133 39q74 21 132 34q146 32 268 28q221 0 334 -100q126 -113 126 -363v-410q0 -163 111 -192v-31h-346l-45 170q-62 -98 -135 -146 q-83 -55 -191 -55q-180 0 -294 69q-138 83 -138 249zM213 1249q28 129 82 194q67 81 184 81q52 0 166 -51l44 -20q24 -10 42 -17q45 -17 70 -17q35 0 61 34q19 24 33 67h98q-21 -119 -79 -192q-70 -89 -179 -89q-41 0 -91 17q-35 11 -87 36l-78 37q-40 17 -70 17 q-68 0 -98 -97h-98zM387 274q0 -87 46 -150q51 -69 134 -69q119 0 179 130q23 51 35 117q9 57 9 114v178h-37q-160 0 -257 -75q-109 -85 -109 -245z" />
<glyph unicode="&#xe8;" horiz-adv-x="1290" d="M77 532q0 241 150 399q156 165 409 165q220 0 369 -116q159 -123 170 -331h-762v-117q0 -92 15 -168q17 -90 53 -154q89 -155 284 -155q151 0 262 125q95 108 133 269l54 -39q-109 -441 -578 -441q-251 0 -409 170q-150 160 -150 393zM321 1491q0 96 114 96q45 0 77 -22 q14 -9 30 -25l31 -33l254 -305h-138l-192 119q-176 108 -176 170zM413 715h426q-3 63 -10 104q-9 61 -28 103q-51 108 -175 108q-125 0 -175 -108q-19 -42 -29 -103q-6 -41 -9 -104z" />
<glyph unicode="&#xe9;" horiz-adv-x="1290" d="M77 532q0 241 150 399q156 165 409 165q220 0 369 -116q159 -123 170 -331h-762v-117q0 -92 15 -168q17 -90 53 -154q89 -155 284 -155q151 0 262 125q95 108 133 269l54 -39q-109 -441 -578 -441q-251 0 -409 170q-150 160 -150 393zM413 715h426q-3 63 -10 104 q-9 61 -28 103q-51 108 -175 108q-125 0 -175 -108q-19 -42 -29 -103q-6 -41 -9 -104zM489 1202l256 305q37 44 58 58q32 22 77 22q115 0 115 -96q0 -62 -125 -137l-244 -152h-137z" />
<glyph unicode="&#xea;" horiz-adv-x="1290" d="M77 532q0 241 150 399q156 165 409 165q220 0 369 -116q159 -123 170 -331h-762v-117q0 -92 15 -168q17 -90 53 -154q89 -155 284 -155q151 0 262 125q95 108 133 269l54 -39q-109 -441 -578 -441q-251 0 -409 170q-150 160 -150 393zM300 1202l248 365h219l250 -365 h-135l-225 197l-226 -197h-131zM413 715h426q-3 63 -10 104q-9 61 -28 103q-51 108 -175 108q-125 0 -175 -108q-19 -42 -29 -103q-6 -41 -9 -104z" />
<glyph unicode="&#xec;" horiz-adv-x="681" d="M-8 1491q0 96 115 96q45 0 77 -22q13 -9 29 -25l31 -33l254 -305h-137l-193 119q-176 108 -176 170zM64 -8v31q139 20 139 223v612q0 97 -111 119v31q203 15 410 57v-819q0 -203 139 -223v-31q-32 0 -72 1l-145 6q-40 1 -72 1q-31 0 -71 -1l-145 -6q-40 -1 -72 -1z" />
<glyph unicode="&#xed;" horiz-adv-x="681" d="M63 -8v31q139 20 139 223v612q0 97 -110 119v31q202 15 409 57v-819q0 -203 140 -223v-31q-33 0 -73 1l-145 6q-40 1 -71 1q-32 0 -72 -1l-145 -6q-40 -1 -72 -1zM159 1202l256 305q38 44 59 58q32 22 76 22q115 0 115 -96q0 -62 -125 -137l-244 -152h-137z" />
<glyph unicode="&#xf2;" d="M65 532q0 252 186 412q177 152 432 152q256 0 433 -152q186 -160 186 -412q0 -251 -186 -411q-177 -152 -433 -152q-255 0 -432 152q-186 160 -186 411zM358 1491q0 96 115 96q45 0 77 -22q13 -9 29 -25l31 -33l254 -305h-137l-193 119q-176 108 -176 170zM401 532 q0 -77 11 -152q14 -92 42 -162q34 -84 86 -130q60 -53 143 -53q84 0 144 53q52 46 86 130q28 70 42 162q11 75 11 152q0 78 -11 153q-14 92 -42 162q-34 84 -86 130q-60 53 -144 53q-83 0 -143 -53q-52 -46 -86 -130q-28 -70 -42 -162q-11 -75 -11 -153z" />
<glyph unicode="&#xf3;" d="M65 532q0 252 186 412q177 152 432 152q256 0 433 -152q186 -160 186 -412q0 -251 -186 -411q-177 -152 -433 -152q-255 0 -432 152q-186 160 -186 411zM401 532q0 -77 11 -152q14 -92 42 -162q34 -84 86 -130q60 -53 143 -53q84 0 144 53q52 46 86 130q28 70 42 162 q11 75 11 152q0 78 -11 153q-14 92 -42 162q-34 84 -86 130q-60 53 -144 53q-83 0 -143 -53q-52 -46 -86 -130q-28 -70 -42 -162q-11 -75 -11 -153zM526 1202l256 305q38 44 58 58q33 22 77 22q115 0 115 -96q0 -62 -125 -137l-244 -152h-137z" />
<glyph unicode="&#xf4;" d="M65 532q0 252 186 412q177 152 432 152q256 0 433 -152q186 -160 186 -412q0 -251 -186 -411q-177 -152 -433 -152q-255 0 -432 152q-186 160 -186 411zM337 1202l248 365h219l250 -365h-135l-225 197l-226 -197h-131zM401 532q0 -77 11 -152q14 -92 42 -162 q34 -84 86 -130q60 -53 143 -53q84 0 144 53q52 46 86 130q28 70 42 162q11 75 11 152q0 78 -11 153q-14 92 -42 162q-34 84 -86 130q-60 53 -144 53q-83 0 -143 -53q-52 -46 -86 -130q-28 -70 -42 -162q-11 -75 -11 -153z" />
<glyph unicode="&#xf5;" d="M65 532q0 252 186 412q177 152 432 152q256 0 433 -152q186 -160 186 -412q0 -251 -186 -411q-177 -152 -433 -152q-255 0 -432 152q-186 160 -186 411zM305 1249q27 129 82 194q67 81 184 81q52 0 166 -51l44 -20q24 -10 42 -17q45 -17 69 -17q36 0 62 34q19 24 33 67 h98q-21 -119 -79 -192q-70 -89 -179 -89q-42 0 -92 17q-34 11 -86 36l-78 37q-40 17 -70 17q-68 0 -98 -97h-98zM401 532q0 -77 11 -152q14 -92 42 -162q34 -84 86 -130q60 -53 143 -53q84 0 144 53q52 46 86 130q28 70 42 162q11 75 11 152q0 78 -11 153q-14 92 -42 162 q-34 84 -86 130q-60 53 -144 53q-83 0 -143 -53q-52 -46 -86 -130q-28 -70 -42 -162q-11 -75 -11 -153z" />
<glyph unicode="&#xf7;" horiz-adv-x="1706" />
<glyph unicode="&#xf9;" horiz-adv-x="582" />
<glyph unicode="&#xfa;" horiz-adv-x="580" />
<glyph unicode="&#xfd;" horiz-adv-x="629" />
<glyph unicode="&#x2000;" horiz-adv-x="917" />
<glyph unicode="&#x2001;" horiz-adv-x="1835" />
<glyph unicode="&#x2002;" horiz-adv-x="917" />
<glyph unicode="&#x2003;" horiz-adv-x="1835" />
<glyph unicode="&#x2004;" horiz-adv-x="611" />
<glyph unicode="&#x2005;" horiz-adv-x="458" />
<glyph unicode="&#x2006;" horiz-adv-x="305" />
<glyph unicode="&#x2007;" horiz-adv-x="305" />
<glyph unicode="&#x2008;" horiz-adv-x="229" />
<glyph unicode="&#x2009;" horiz-adv-x="367" />
<glyph unicode="&#x200a;" horiz-adv-x="101" />
<glyph unicode="&#x2010;" horiz-adv-x="681" d="M63 416l59 233h496l-59 -233h-496z" />
<glyph unicode="&#x2011;" horiz-adv-x="681" d="M63 416l59 233h496l-59 -233h-496z" />
<glyph unicode="&#x2012;" horiz-adv-x="681" d="M63 416l59 233h496l-59 -233h-496z" />
<glyph unicode="&#x2013;" horiz-adv-x="1150" d="M63 416l109 233h915l-109 -233h-915z" />
<glyph unicode="&#x2014;" horiz-adv-x="2174" d="M63 416l218 233h1830l-218 -233h-1830z" />
<glyph unicode="&#x2018;" horiz-adv-x="569" d="M118 905q0 122 76 256q68 117 160 191l38 -43q-108 -105 -108 -217q175 0 166 -187q0 -70 -48 -120q-48 -52 -118 -52t-118 52q-48 50 -48 120z" />
<glyph unicode="&#x2019;" horiz-adv-x="569" d="M118 1180q0 70 48 120q49 52 118 52q70 0 119 -52q47 -50 47 -120q0 -122 -76 -256q-67 -118 -159 -191l-39 43q108 105 108 217q-175 0 -166 187z" />
<glyph unicode="&#x201c;" horiz-adv-x="985" d="M100 905q0 122 76 256q68 117 160 191l38 -43q-108 -105 -108 -217q175 0 166 -187q0 -70 -48 -120q-48 -52 -118 -52t-118 52q-48 50 -48 120zM551 905q0 122 76 256q67 117 159 191l39 -43q-109 -105 -109 -217q176 0 166 -187q0 -70 -47 -120q-49 -52 -119 -52 q-69 0 -118 52q-47 50 -47 120z" />
<glyph unicode="&#x201d;" horiz-adv-x="985" d="M111 1178q0 70 48 120q49 52 118 52q70 0 119 -52q47 -50 47 -120q0 -122 -76 -256q-67 -118 -159 -191l-39 43q108 105 108 217q-175 0 -166 187zM562 1178q0 70 48 120q48 52 118 52t118 -52q48 -50 48 -120q0 -122 -76 -256q-68 -118 -160 -191l-39 43 q109 105 109 217q-175 0 -166 187z" />
<glyph unicode="&#x2026;" horiz-adv-x="2048" d="M176 141q0 70 48 121t118 51t118 -51t48 -121t-48 -120q-48 -52 -118 -52t-118 52q-48 50 -48 120zM858 141q0 70 48 121t118 51t118 -51t48 -121t-48 -120q-48 -52 -118 -52t-118 52q-48 50 -48 120zM1540 141q0 70 48 121t118 51t118 -51t48 -121t-48 -120 q-48 -52 -118 -52t-118 52q-48 50 -48 120z" />
<glyph unicode="&#x202f;" horiz-adv-x="367" />
<glyph unicode="&#x205f;" horiz-adv-x="458" />
<glyph unicode="&#x25fc;" horiz-adv-x="1030" d="M0 0v1030h1030v-1030h-1030z" />
</font>
</defs>
</svg>
